Coordinates
version=1
nRows=24
nColumns=24
inDegrees=yes

Units are S.I. units (second, meters, Newtons, ...)
Angles are in degrees.

endheader
time	pelvis_tilt	pelvis_list	pelvis_rotation	pelvis_tx	pelvis_ty	pelvis_tz	hip_flexion_r	hip_adduction_r	hip_rotation_r	knee_angle_r	ankle_angle_r	subtalar_angle_r	mtp_angle_r	hip_flexion_l	hip_adduction_l	hip_rotation_l	knee_angle_l	ankle_angle_l	subtalar_angle_l	mtp_angle_l	lumbar_extension	lumbar_bending	lumbar_rotation
      4.64000000	     14.06357642	     11.30407728	     15.25208181	     -0.29895788	      0.73782792	     -0.31015248	     11.75281126	    -12.83292266	    -13.51605223	    -14.92932006	     22.50280640	     14.01568343	      0.00000000	    -31.64616171	      5.84552897	      7.12299920	    -20.87858566	     29.79786712	     12.25844579	      0.00000000	    -32.69871752	     -1.02494172	    -22.42031512
      4.64500000	     14.17206368	     11.03325186	     15.32503474	     -0.29100735	      0.73808596	     -0.30957914	     11.50744294	    -12.21541827	    -12.92385747	    -15.60039899	     21.85592940	     12.68039925	      0.00000000	    -31.25307406	      5.43781937	      7.29862606	    -22.83291816	     28.80037911	     11.82321144	      0.00000000	    -32.63012998	     -0.84700926	    -22.39191275
      4.65000000	     14.16406364	     10.71614277	     15.33224872	     -0.28304739	      0.73824196	     -0.30894053	     11.44991476	    -11.57989064	    -12.23083299	    -16.36676041	     21.17068956	     11.47165247	      0.00000000	    -30.63115916	      5.05396824	      7.25065426	    -24.92766830	     27.73020982	     11.59798676	      0.00000000	    -32.42869309	     -0.69540838	    -22.25767558
      4.65500000	     14.15047669	     10.37231315	     15.33434433	     -0.27511091	      0.73843899	     -0.30828896	     11.40459236	    -10.92368525	    -11.53036862	    -17.15900611	     20.47972182	     10.32373745	      0.00000000	    -29.91960112	      4.65315172	      7.14198967	    -27.11637076	     26.48838898	     11.36762159	      0.00000000	    -32.22230677	     -0.51802185	    -22.11352449
      4.66000000	     14.14848127	      9.96355522	     15.35626392	     -0.26720966	      0.73869127	     -0.30767100	     11.33758087	    -10.21563238	    -10.91693887	    -17.93611114	     19.77346865	      9.35641457	      0.00000000	    -29.12577171	      4.18925361	      7.00816242	    -29.39761823	     25.12965781	     11.04113441	      0.00000000	    -32.01878892	     -0.25390235	    -21.94245719
      4.66500000	     14.09341714	      9.57762288	     15.34576805	     -0.25933448	      0.73893754	     -0.30695259	     11.33776406	     -9.52661325	    -10.18491806	    -18.73582507	     19.14959472	      8.30126005	      0.00000000	    -28.20784212	      3.75473603	      6.76806401	    -31.73767978	     23.52696168	     10.87331985	      0.00000000	    -31.77744212	     -0.05353405	    -21.77433207
      4.67000000	     14.05649025	      9.12891343	     15.36848390	     -0.25151468	      0.73923556	     -0.30627957	     11.29911864	     -8.79160737	     -9.58870217	    -19.49416002	     18.55193203	      7.46139159	      0.00000000	    -27.22004173	      3.24717472	      6.53349951	    -34.14171722	     21.82668245	     10.57123273	      0.00000000	    -31.54961271	      0.24191414	    -21.59816291
      4.67500000	     14.00996993	      8.64819271	     15.40513776	     -0.24375047	      0.73955189	     -0.30560604	     11.25762654	     -8.03655504	     -9.05600705	    -20.21818680	     18.02925947	      6.73267362	      0.00000000	    -26.14592094	      2.70174859	      6.28720761	    -36.58633889	     19.99389549	     10.21160090	      0.00000000	    -31.31735383	      0.57596871	    -21.41902542
      4.68000000	     13.95677625	      8.13724709	     15.45792238	     -0.23604990	      0.73988502	     -0.30494497	     11.20390046	     -7.26472892	     -8.60529572	    -20.89508596	     17.58679379	      6.12372701	      0.00000000	    -24.99389139	      2.12236901	      6.05041746	    -39.05428608	     18.07424657	      9.77296779	      0.00000000	    -31.08244881	      0.95216006	    -21.23905188
      4.68500000	     13.90066706	      7.60026127	     15.53179397	     -0.22842672	      0.74022847	     -0.30430346	     11.13231986	     -6.48067244	     -8.25218564	    -21.51966462	     17.24440694	      5.62288845	      0.00000000	    -23.77536006	      1.51310807	      5.84199389	    -41.52631067	     16.10682914	      9.23952650	      0.00000000	    -30.85375585	      1.37009154	    -21.06425381
      4.69000000	     13.87082437	      7.04189841	     15.61590010	     -0.22088647	      0.74059751	     -0.30369654	     11.01220211	     -5.68985890	     -8.04380992	    -22.09122136	     17.00866364	      5.25855831	      0.00000000	    -22.52996296	      0.87485010	      5.64421067	    -43.98122792	     14.15913404	      8.57991064	      0.00000000	    -30.66443770	      1.83365798	    -20.88468536
      4.69500000	     13.77515867	      6.46660817	     15.72659313	     -0.21343014	      0.74093208	     -0.30310927	     10.92515810	     -4.89435729	     -7.82201799	    -22.57419544	     16.85506486	      4.90060311	      0.00000000	    -21.16489312	      0.25380226	      5.56853595	    -46.40803481	     12.23268056	      7.90630478	      0.00000000	    -30.41416142	      2.31159421	    -20.71634160
      4.70000000	     13.70865474	      5.88048731	     15.83953727	     -0.20607037	      0.74128540	     -0.30256476	     10.78326248	     -4.10017427	     -7.74104205	    -22.99474310	     16.80748351	      4.65498002	      0.00000000	    -19.78919654	     -0.37313503	      5.51549879	    -48.79078721	     10.44267199	      7.13022042	      0.00000000	    -30.21066412	      2.82325086	    -20.53629738
      4.70500000	     13.76502388	      5.27028365	     15.90087724	     -0.19876661	      0.74175797	     -0.30208532	     10.47317940	     -3.26646313	     -7.76733598	    -23.30761011	     16.85707681	      4.65536691	      0.00000000	    -18.54004793	     -1.01538803	      5.46406095	    -51.06323159	      8.83041477	      6.25935452	      0.00000000	    -30.14959016	      3.40146065	    -20.26379662
      4.71000000	     13.57545223	      4.70352478	     16.07778965	     -0.19164886	      0.74200556	     -0.30161231	     10.40315074	     -2.53537987	     -7.80795809	    -23.60447297	     16.98445679	      4.33016435	      0.00000000	    -16.94299806	     -1.54833450	      5.61439703	    -53.37767271	      7.41496082	      5.45123664	      0.00000000	    -29.85713534	      3.89388961	    -20.14358612
      4.71500000	     13.51560163	      4.12188282	     16.18231699	     -0.18458002	      0.74238010	     -0.30120416	     10.15749599	     -1.76718703	     -7.92664424	    -23.79359329	     17.19136506	      4.24774337	      0.00000000	    -15.49484941	     -2.07447590	      5.74638513	    -55.56384441	      6.26022646	      4.59526084	      0.00000000	    -29.71784959	      4.43829543	    -19.90960760
      4.72000000	     13.46037777	      3.55615965	     16.27550205	     -0.17760778	      0.74277362	     -0.30084414	      9.86971631	     -1.01784913	     -8.08528217	    -23.90169105	     17.46232574	      4.20240835	      0.00000000	    -14.03784204	     -2.54330970	      5.93235305	    -57.66820102	      5.37456645	      3.76046934	      0.00000000	    -29.60656394	      4.97602603	    -19.65093933
      4.72500000	     13.40965080	      3.00887684	     16.34695768	     -0.17071881	      0.74318793	     -0.30052027	      9.54056679	     -0.28505600	     -8.25724831	    -23.93275385	     17.78787031	      4.20015720	      0.00000000	    -12.57789752	     -2.94879248	      6.15666030	    -59.68610844	      4.76862713	      2.96266142	      0.00000000	    -29.52364075	      5.49801767	    -19.36341437
      4.73000000	     13.37671376	      2.48798520	     16.38757188	     -0.16390824	      0.74364677	     -0.30026006	      9.15424139	      0.42135363	     -8.46023676	    -23.88582636	     18.14150841	      4.23209428	      0.00000000	    -11.14131930	     -3.28036147	      6.40501074	    -61.60308732	      4.43338942	      2.20501095	      0.00000000	    -29.48486852	      6.00103865	    -19.00878771
      4.73500000	     13.33803089	      1.99905310	     16.40729205	     -0.15716315	      0.74411796	     -0.30000998	      8.73764380	      1.10266663	     -8.62339726	    -23.77780463	     18.55655813	      4.29081823	      0.00000000	     -9.69426132	     -3.54747099	      6.65505710	    -63.43049133	      4.35625517	      1.51869017	      0.00000000	    -29.46195056	      6.46923380	    -18.67527056
      4.74000000	     13.31802325	      1.54145256	     16.38583894	     -0.15046975	      0.74464272	     -0.29979969	      8.26325569	      1.75743573	     -8.77835896	    -23.60145144	     18.97497453	      4.38722886	      0.00000000	     -8.28360182	     -3.74122316	      6.90113453	    -65.13956373	      4.51135201	      0.87852517	      0.00000000	    -29.48489985	      6.90336040	    -18.27172432
      4.74500000	     13.36021910	      1.12207236	     16.28618263	     -0.14378556	      0.74527864	     -0.29960273	      7.67243523	      2.39736674	     -8.86758189	    -23.33735854	     19.38919880	      4.56512890	      0.00000000	     -6.97690035	     -3.87234740	      7.08506171	    -66.70398972	      4.84589899	      0.24636754	      0.00000000	    -29.60025307	      7.29317039	    -17.77726883
      4.75000000	     13.38004813	      0.73933724	     16.18595461	     -0.13715867	      0.74590853	     -0.29943695	      7.07957815	      2.99322838	     -8.93807145	    -23.04541801	     19.82241124	      4.72942305	      0.00000000	     -5.64484611	     -3.94049796	      7.27293023	    -68.17191292	      5.35225858	     -0.30077759	      0.00000000	    -29.71015629	      7.64547969	    -17.30351757
      4.75500000	     13.38631499	      0.39022077	     16.05681998	     -0.13055329	      0.74655482	     -0.29928916	      6.47172660	      3.55022782	     -8.98051229	    -22.71434511	     20.25362709	      4.89679359	      0.00000000	     -4.31536479	     -3.94752513	      7.43779814	    -69.51801765	      5.99171260	     -0.78021663	      0.00000000	    -29.82278942	      7.94820978	    -16.79590032
